# xmcd
#
# Track frame offsets:
#	150
#	27523
#	51240
#	83192
#	104800
#	133376
#	163400
#	190264
#	216635
#	245841
#
# Disc length: 3680 seconds
# Revision: 0
# Processed by: cddbd v1.5.2PL0 Copyright (c) Steve Scherf et al.
# Submitted via: dBpowerAMP V12.0
#
DISCID=a70e5e0a
DTITLE=Various Artist - Disco Giants 3
DYEAR=1984
DGENRE=Disco
TTITLE0=John "Jellybean" Benitez - Sidwalk Talk
TTITLE1=Ritchie Family - I'll Do My Best (for You Baby)
TTITLE2=Gwen Guthrie - It Should Have Been You (Larry Levan Mix)
TTITLE3=Manhattans - Crazy
TTITLE4=Odyssey - Inside Out
TTITLE5=Lisa Lisa and Cult Jam With Full Force - I Wonder If I Take You Home
TTITLE6=Vesta Williams - Once Bitten Twice Shy
TTITLE7=Skipworth and Turner - Thinking About Your Love
TTITLE8=Cameo - Single Life
TTITLE9=David Joseph - You Can't Hide Your Love (From Me) (Larry Levan Mix)
EXTD=
EXTT0=
EXTT1=
EXTT2=
EXTT3=
EXTT4=
EXTT5=
EXTT6=
EXTT7=
EXTT8=
EXTT9=
PLAYORDER=
